<?xml version="1.0" standalone="no"?>
<!DOCTYPE svg PUBLIC "-//W3C//DTD SVG 20010904//EN"
 "http://www.w3.org/TR/2001/REC-SVG-20010904/DTD/svg10.dtd">
<svg version="1.0" xmlns="http://www.w3.org/2000/svg"
 width="1408.000000pt" height="768.000000pt" viewBox="0 0 1408.000000 768.000000"
 preserveAspectRatio="xMidYMid meet">

<g transform="translate(0.000000,768.000000) scale(0.100000,-0.100000)"
fill="#000000" stroke="none">
<path d="M7947 5698 c-9 -28 -15 -54 -13 -56 2 -2 23 9 45 24 40 26 41 27 21
41 -10 7 -23 20 -28 29 -6 10 -13 0 -25 -38z"/>
<path d="M8121 5673 c-1 -7 -8 -10 -18 -6 -12 3 -10 -1 5 -12 27 -20 33 -18
21 10 -4 11 -8 15 -8 8z"/>
<path d="M7948 5149 c-10 -5 -83 -32 -163 -59 -161 -55 -206 -79 -257 -139
-30 -36 -58 -97 -58 -129 0 -8 380 -278 457 -325 8 -5 2 14 -13 44 -90 178
-85 306 16 391 21 18 73 54 116 80 44 26 93 59 109 73 l30 27 -30 -20 c-36
-23 -84 -23 -139 1 -57 25 -69 37 -55 53 13 16 10 17 -13 3z"/>
<path d="M5712 4227 l-2 -868 393 3 c378 4 395 5 462 27 205 68 350 196 435
385 15 33 71 194 125 356 122 369 126 382 115 375 -6 -4 -10 -12 -10 -20 0 -7
-6 -15 -13 -18 -8 -3 -14 -23 -15 -47 -2 -48 -18 -83 -34 -74 -5 4 -15 0 -20
-7 -7 -11 -11 -11 -15 -1 -2 6 -9 10 -14 6 -5 -3 -9 0 -9 6 0 6 -5 8 -12 4 -7
-4 -8 -3 -4 5 4 6 12 9 17 6 5 -4 9 -1 9 5 0 7 -13 10 -35 7 -19 -3 -33 -1
-30 3 7 11 -20 31 -30 22 -5 -4 -5 -1 -1 6 4 7 2 12 -5 12 -8 0 -8 4 1 15 7 9
10 18 7 21 -8 8 28 85 44 95 11 7 11 9 1 9 -8 0 -10 9 -6 28 20 80 -18 -20
-127 -344 -66 -197 -135 -385 -151 -416 -37 -70 -113 -148 -182 -187 -100 -57
-138 -63 -418 -68 l-258 -5 -1 286 c-1 157 -3 291 -4 296 -1 6 -3 204 -4 442
0 237 -3 429 -5 427 -3 -3 -6 -45 -7 -94 -2 -103 -5 -115 -27 -115 -12 0 -13
3 -5 11 6 6 9 18 6 25 -3 8 0 14 6 14 6 0 11 8 11 18 0 13 -2 14 -9 4 -7 -11
-9 -11 -14 1 -3 9 -14 13 -31 10 -16 -3 -23 -10 -19 -17 3 -6 -3 -3 -15 8 -12
10 -19 24 -15 30 3 6 3 8 -2 4 -13 -13 -34 25 -35 62 -1 82 -29 105 -32 27 -1
-33 -3 -29 -8 23 -4 36 -7 -326 -8 -803z m102 621 c14 -3 26 -1 26 5 0 5 7 4
15 -3 22 -18 9 -30 -26 -23 -26 5 -28 3 -22 -13 6 -16 4 -17 -9 -7 -8 7 -18
11 -22 8 -3 -3 -2 1 4 7 16 19 12 32 -5 18 -16 -14 -18 -8 -8 29 6 23 7 24 14
4 4 -11 19 -23 33 -25z m35 -42 c9 -11 8 -15 -6 -20 -10 -4 -14 -4 -10 0 4 4
2 13 -4 21 -7 8 -8 13 -1 13 5 0 15 -6 21 -14z"/>
<path d="M6028 5073 c34 -2 90 -2 125 0 34 2 6 3 -63 3 -69 0 -97 -1 -62 -3z"/>
<path d="M5833 4923 c-15 -5 -17 -23 -4 -23 5 0 11 7 15 15 3 8 4 15 3 14 -1
0 -8 -3 -14 -6z"/>
<path d="M6650 4701 c-22 -17 -22 -19 -5 -18 18 2 20 -5 23 -60 3 -58 1 -63
-18 -63 -11 0 -20 5 -20 10 0 6 -7 10 -15 10 -9 0 -18 7 -21 15 -4 8 -10 12
-15 9 -5 -3 -14 -2 -20 1 -7 5 -2 16 13 32 13 14 -84 -46 -214 -133 l-238
-158 0 -71 1 -70 67 -45 c37 -25 160 -109 275 -187 114 -79 210 -143 212 -143
3 0 5 49 5 110 l0 109 -146 98 c-81 54 -156 105 -167 114 -20 15 -14 20 146
129 l167 114 0 108 c0 59 -1 108 -2 108 -2 0 -14 -9 -28 -19z"/>
<path d="M7076 4654 c-4 -14 -5 -29 -2 -31 3 -3 8 7 12 21 3 15 4 29 1 32 -2
3 -8 -7 -11 -22z"/>
<path d="M6930 4640 c0 -8 4 -21 9 -28 6 -10 10 -8 14 9 4 13 4 25 2 28 -3 2
-5 -2 -5 -10 0 -11 -2 -11 -10 1 -9 13 -10 13 -10 0z"/>
<path d="M7541 4624 c36 -27 81 -53 64 -37 -21 20 -84 63 -91 63 -4 0 8 -12
27 -26z"/>
<path d="M7423 4565 c-7 -8 -13 -25 -13 -38 0 -20 28 -43 165 -133 90 -60 165
-113 165 -119 0 -5 -75 -59 -165 -118 l-165 -109 0 -109 c0 -60 3 -109 8 -108
4 0 129 85 277 187 247 171 270 190 272 217 1 20 0 23 -4 8 -3 -18 -11 -23
-38 -23 -18 0 -35 -3 -38 -7 -2 -5 -2 -3 -1 4 2 6 -4 14 -12 17 -8 3 -14 1
-14 -5 0 -6 -5 -7 -11 -4 -6 4 -8 13 -5 20 8 22 -39 56 -86 62 -49 6 -108 45
-108 72 0 10 -7 24 -15 31 -8 7 -15 9 -15 5 0 -4 -6 -2 -14 4 -8 6 -18 11 -22
9 -38 -10 -129 49 -118 76 4 12 -21 77 -29 76 -1 -1 -8 -7 -14 -15z"/>
<path d="M7740 4496 c0 -2 8 -10 18 -17 15 -13 16 -12 3 4 -13 16 -21 21 -21
13z"/>
<path d="M7941 4355 c10 -11 19 -29 22 -40 4 -19 5 -19 6 1 0 11 -9 29 -21 40
-23 19 -23 19 -7 -1z"/>
<path d="M4412 2678 l3 -373 220 0 c244 0 284 8 379 68 182 116 217 399 67
556 -96 102 -168 121 -454 121 l-217 0 2 -372z m458 208 c84 -44 120 -104 120
-201 0 -104 -34 -165 -115 -208 -33 -17 -62 -22 -162 -25 l-123 -4 0 232 0
232 123 -4 c91 -3 131 -9 157 -22z"/>
<path d="M5310 2675 l0 -375 293 2 292 3 3 73 3 72 -211 0 -210 0 0 85 0 85
180 0 181 0 -3 68 -3 67 -177 3 -178 2 0 75 0 75 200 0 200 0 0 70 0 70 -285
0 -285 0 0 -375z"/>
<path d="M5940 3047 c0 -2 66 -154 146 -338 80 -184 153 -351 161 -371 l16
-38 88 0 87 0 30 73 c17 39 88 203 157 362 70 160 129 296 132 303 4 9 -17 12
-85 12 l-89 0 -98 -227 c-54 -126 -105 -244 -113 -263 l-14 -34 -13 24 c-7 14
-54 120 -103 235 -49 116 -96 222 -103 238 -12 27 -13 27 -106 27 -51 0 -93
-2 -93 -3z"/>
<path d="M6860 2675 l0 -375 55 0 55 0 0 120 0 120 138 0 c163 0 219 13 281
67 59 50 81 101 81 188 0 87 -22 138 -79 187 -68 58 -116 68 -337 68 l-194 0
0 -375z m415 260 c22 -11 50 -36 63 -55 20 -29 23 -45 20 -93 -5 -67 -28 -104
-82 -131 -30 -15 -63 -19 -169 -20 l-132 -1 -3 150 c-1 82 0 155 3 163 9 23
248 13 300 -13z"/>
<path d="M7795 2995 c-60 -131 -75 -166 -124 -269 -28 -59 -51 -110 -51 -112
0 -1 -31 -70 -70 -153 -38 -82 -70 -152 -70 -156 0 -3 26 -5 57 -3 64 3 60 -2
113 121 l29 67 201 0 201 0 45 -95 44 -95 61 0 c45 0 60 3 56 13 -3 6 -71 152
-152 322 -80 171 -157 334 -170 363 l-25 52 -60 0 -60 0 -25 -55z m167 -238
l77 -172 -80 -3 c-43 -2 -115 -2 -158 0 l-80 3 77 173 c42 94 79 172 82 172 3
0 40 -78 82 -173z"/>
<path d="M8260 3005 l0 -45 130 0 130 0 0 -330 0 -331 58 3 57 3 2 260 c1 143
2 290 3 328 l0 67 125 0 125 0 0 45 0 45 -315 0 -315 0 0 -45z"/>
<path d="M9012 2678 l3 -373 55 0 55 0 3 168 2 167 210 0 210 0 2 -167 3 -168
55 0 55 0 3 373 2 372 -60 0 -60 0 0 -155 0 -155 -210 0 -210 0 0 155 0 155
-60 0 -60 0 2 -372z"/>
<path d="M4518 2113 c12 -2 32 -2 45 0 12 2 2 4 -23 4 -25 0 -35 -2 -22 -4z"/>
<path d="M4993 2113 c9 -2 25 -2 35 0 9 3 1 5 -18 5 -19 0 -27 -2 -17 -5z"/>
<path d="M5068 2113 c6 -2 18 -2 25 0 6 3 1 5 -13 5 -14 0 -19 -2 -12 -5z"/>
<path d="M5173 2113 c37 -2 96 -2 130 0 34 2 4 3 -68 3 -71 0 -99 -1 -62 -3z"/>
<path d="M5888 2113 c18 -2 45 -2 60 0 15 2 0 4 -33 4 -33 0 -45 -2 -27 -4z"/>
<path d="M6108 2113 c23 -2 59 -2 80 0 20 2 1 4 -43 4 -44 0 -61 -2 -37 -4z"/>
<path d="M6273 2113 c9 -2 23 -2 30 0 6 3 -1 5 -18 5 -16 0 -22 -2 -12 -5z"/>
<path d="M6943 2113 c43 -2 110 -2 150 0 40 1 5 3 -78 3 -82 0 -115 -2 -72 -3z"/>
<path d="M7223 2113 c26 -2 67 -2 90 0 23 2 2 3 -48 3 -49 0 -68 -1 -42 -3z"/>
<path d="M7368 2113 c6 -2 18 -2 25 0 6 3 1 5 -13 5 -14 0 -19 -2 -12 -5z"/>
<path d="M7888 2113 c7 -3 16 -2 19 1 4 3 -2 6 -13 5 -11 0 -14 -3 -6 -6z"/>
<path d="M8013 2113 c9 -2 25 -2 35 0 9 3 1 5 -18 5 -19 0 -27 -2 -17 -5z"/>
<path d="M8983 2113 c26 -2 67 -2 90 0 23 2 2 3 -48 3 -49 0 -68 -1 -42 -3z"/>
<path d="M9143 2113 c9 -2 23 -2 30 0 6 3 -1 5 -18 5 -16 0 -22 -2 -12 -5z"/>
<path d="M9528 2113 c7 -3 16 -2 19 1 4 3 -2 6 -13 5 -11 0 -14 -3 -6 -6z"/>
<path d="M9568 2113 c7 -3 16 -2 19 1 4 3 -2 6 -13 5 -11 0 -14 -3 -6 -6z"/>
<path d="M4420 1835 l0 -115 73 0 c84 0 117 16 117 57 0 15 -7 35 -16 45 -13
14 -14 21 -5 32 20 24 9 69 -19 83 -14 7 -53 13 -87 13 l-63 0 0 -115z m134
82 c11 -8 17 -23 14 -38 -3 -22 -8 -24 -60 -27 l-58 -3 0 41 0 40 43 0 c24 0
51 -6 61 -13z m24 -125 c6 -38 -15 -52 -74 -52 l-54 0 0 39 c0 36 3 40 28 43
15 2 43 1 62 -2 27 -4 36 -11 38 -28z"/>
<path d="M4672 1861 c3 -78 6 -93 27 -115 34 -36 101 -37 136 -1 22 21 25 33
25 99 0 41 3 81 6 90 4 10 1 16 -9 16 -12 0 -16 -18 -19 -91 -3 -100 -15 -119
-69 -119 -48 0 -69 40 -69 131 0 66 -3 79 -16 79 -14 0 -15 -13 -12 -89z"/>
<path d="M4940 1835 c0 -96 3 -115 15 -115 12 0 15 19 15 115 0 96 -3 115 -15
115 -12 0 -15 -19 -15 -115z"/>
<path d="M5050 1835 l0 -115 80 0 c47 0 80 4 80 10 0 6 -28 10 -65 10 l-65 0
0 105 c0 87 -3 105 -15 105 -12 0 -15 -19 -15 -115z"/>
<path d="M5254 1834 l-1 -116 80 4 c74 3 80 5 108 36 22 25 29 42 29 75 0 78
-52 117 -157 117 l-58 0 -1 -116z m156 66 c19 -13 26 -27 28 -61 4 -63 -28
-93 -101 -94 l-52 0 -3 79 c-2 44 -1 85 2 92 7 19 93 8 126 -16z"/>
<path d="M5621 1913 c13 -21 33 -54 46 -73 15 -23 23 -49 23 -77 0 -32 4 -43
15 -43 11 0 15 11 15 43 0 28 8 54 23 77 55 83 69 110 55 110 -7 0 -30 -27
-52 -60 -21 -33 -40 -60 -41 -60 -2 0 -20 27 -40 60 -20 33 -43 60 -52 60 -12
0 -10 -7 8 -37z"/>
<path d="M5883 1930 c-36 -22 -60 -82 -49 -125 4 -15 20 -40 36 -56 24 -25 37
-29 80 -29 46 0 56 4 86 34 36 36 44 78 24 130 -22 59 -116 84 -177 46z m135
-36 c25 -28 30 -88 9 -115 -36 -47 -97 -51 -138 -10 -46 47 -38 114 19 146 36
20 81 11 110 -21z"/>
<path d="M6130 1870 c0 -84 15 -132 45 -144 39 -15 96 -6 120 19 23 22 25 32
25 115 0 65 -3 90 -12 90 -10 0 -13 -24 -13 -84 0 -96 -16 -126 -67 -126 -52
0 -68 29 -68 125 0 69 -3 85 -15 85 -12 0 -15 -16 -15 -80z"/>
<path d="M6400 1836 c0 -96 3 -116 15 -116 10 0 15 11 15 35 0 34 1 35 38 35
31 0 41 -6 61 -35 13 -19 30 -35 38 -35 15 0 9 16 -20 54 -13 18 -12 22 9 39
30 23 32 75 5 108 -16 19 -30 24 -90 27 l-71 4 0 -116z m131 74 c23 -13 26
-62 4 -80 -8 -7 -35 -15 -60 -18 l-45 -5 0 57 0 56 41 0 c22 0 49 -5 60 -10z"/>
<path d="M6789 1935 c-28 -15 -59 -70 -59 -105 0 -29 26 -76 52 -94 28 -20
108 -21 134 -2 24 18 13 31 -14 17 -85 -45 -181 58 -127 136 23 34 78 48 114
30 28 -14 41 -13 41 3 0 12 -50 30 -83 30 -18 -1 -44 -7 -58 -15z"/>
<path d="M7029 1935 c-64 -34 -73 -132 -19 -187 23 -23 37 -28 75 -28 82 0
125 39 125 113 0 41 -33 95 -66 107 -36 14 -84 12 -115 -5z m129 -39 c40 -39
30 -116 -18 -141 -40 -20 -72 -19 -103 5 -52 41 -42 130 17 156 38 17 74 10
104 -20z"/>
<path d="M7280 1835 l0 -117 76 4 c71 3 78 6 105 36 23 25 29 42 29 77 0 35
-6 52 -29 77 -27 30 -34 33 -105 36 l-76 4 0 -117z m155 62 c29 -25 37 -77 16
-114 -14 -27 -60 -45 -107 -41 l-39 3 -3 88 -3 87 55 0 c43 0 61 -5 81 -23z"/>
<path d="M7554 1835 c1 -84 4 -115 14 -115 9 0 12 30 12 115 0 91 -3 115 -14
115 -11 0 -13 -23 -12 -115z"/>
<path d="M7660 1835 c0 -96 3 -115 15 -115 12 0 15 16 15 80 0 44 4 80 8 80 4
0 36 -36 71 -80 34 -44 69 -80 77 -80 11 0 14 23 14 115 0 94 -3 115 -15 115
-11 0 -15 -19 -17 -87 l-3 -87 -70 87 c-38 48 -76 87 -82 87 -10 0 -13 -30
-13 -115z"/>
<path d="M7973 1930 c-36 -22 -60 -82 -49 -125 4 -15 20 -40 36 -56 24 -24 37
-29 80 -29 74 0 90 11 90 65 0 33 -4 45 -15 45 -10 0 -15 -10 -15 -33 0 -42
-15 -57 -58 -57 -42 0 -92 46 -92 85 0 73 70 122 132 91 39 -20 60 -6 27 18
-32 22 -97 20 -136 -4z"/>
<path d="M8300 1835 c0 -96 3 -115 15 -115 11 0 15 12 15 45 0 29 4 45 13 46
6 0 32 1 56 2 25 1 46 7 48 15 4 9 -12 12 -56 12 l-61 0 0 40 c0 44 -2 43 83
40 37 -1 47 2 47 14 0 13 -14 16 -80 16 l-80 0 0 -115z"/>
<path d="M8518 1858 c5 -115 20 -138 92 -138 37 0 51 5 71 26 21 22 24 37 27
115 3 74 1 89 -11 89 -12 0 -16 -18 -19 -91 -2 -76 -6 -93 -22 -105 -27 -19
-59 -18 -87 5 -21 17 -24 29 -28 105 -2 56 -7 86 -15 86 -8 0 -10 -28 -8 -92z"/>
<path d="M8750 1935 c0 -9 6 -12 15 -9 8 4 26 3 40 0 25 -6 25 -8 25 -106 0
-82 3 -100 15 -100 12 0 15 18 15 100 l0 100 40 0 c29 0 40 4 40 15 0 12 -17
15 -95 15 -77 0 -95 -3 -95 -15z"/>
<path d="M8982 1860 c4 -77 7 -93 28 -115 32 -34 98 -35 135 -2 23 20 26 32
32 115 5 81 4 92 -11 92 -13 0 -16 -12 -16 -79 0 -92 -21 -131 -70 -131 -49 0
-70 39 -70 131 0 66 -3 79 -16 79 -14 0 -16 -12 -12 -90z"/>
<path d="M9250 1836 c0 -96 3 -116 15 -116 10 0 15 11 15 35 0 34 1 35 39 35
34 0 42 -5 61 -35 12 -19 28 -35 36 -35 19 0 18 7 -7 42 l-21 29 21 23 c28 30
28 86 0 112 -15 13 -40 20 -90 22 l-69 4 0 -116z m114 84 c61 -23 50 -94 -16
-102 -61 -7 -68 -1 -68 51 0 26 3 51 7 54 9 10 48 9 77 -3z"/>
<path d="M9500 1835 l0 -115 85 0 c50 0 85 4 85 10 0 6 -30 10 -70 10 l-70 0
0 40 0 40 61 0 c81 0 77 24 -5 28 l-57 3 3 37 3 37 63 0 c43 0 62 4 62 13 0 8
-23 12 -80 12 l-80 0 0 -115z"/>
</g>
</svg>
